<?xml version="1.0" encoding="utf-8"?>
<!-- Generator: Adobe Illustrator 16.0.0, SVG Export Plug-In . SVG Version: 6.00 Build 0)  -->
<!DOCTYPE svg PUBLIC "-//W3C//DTD SVG 1.1//EN" "http://www.w3.org/Graphics/SVG/1.1/DTD/svg11.dtd">
<svg version="1.1" id="CATS" xmlns="http://www.w3.org/2000/svg" xmlns:xlink="http://www.w3.org/1999/xlink" x="0px" y="0px"
	 width="21.717px" height="21.717px" viewBox="0 0 21.717 21.717" enable-background="new 0 0 21.717 21.717" xml:space="preserve">
<path fill="#0F0F0E" d="M10.858,21.717C4.871,21.717,0,16.846,0,10.858C0,4.871,4.871,0,10.858,0
	c5.988,0,10.859,4.871,10.859,10.858C21.717,16.846,16.846,21.717,10.858,21.717z M10.858,1.277c-5.283,0-9.581,4.298-9.581,9.581
	c0,5.283,4.298,9.582,9.581,9.582c5.283,0,9.582-4.298,9.582-9.582C20.439,5.575,16.141,1.277,10.858,1.277z"/>
<g>
	<path fill="#0F0F0E" d="M10.839,17.92C9.819,17.92,9,17.083,9,16.063c0-0.999,0.84-1.817,1.858-1.817
		c1.02,0,1.859,0.818,1.859,1.817C12.717,17.083,11.878,17.92,10.839,17.92z"/>
	<path fill="#0F0F0E" d="M12.397,8.731c-0.1,0.459-0.22,0.959-0.32,1.518l-0.16,0.88c-0.1,0.52-0.139,0.858-0.159,1.038l-0.042,1.02
		l-0.04,0.359H10.04l-0.061-0.32L9.9,12.167c-0.02-0.18-0.06-0.539-0.16-1.038l-0.161-1.06C9.54,9.889,9.46,9.47,9.321,8.851
		C8.94,7.132,8.84,6.494,8.84,5.873c0-1.218,0.86-2.076,2.039-2.076c1.218,0,1.998,0.858,1.998,2.178
		C12.876,6.613,12.837,6.853,12.397,8.731z"/>
</g>
</svg>
