<?xml version="1.0" encoding="utf-8"?>
<!-- Generator: Adobe Illustrator 16.0.0, SVG Export Plug-In . SVG Version: 6.00 Build 0)  -->
<!DOCTYPE svg PUBLIC "-//W3C//DTD SVG 1.1//EN" "http://www.w3.org/Graphics/SVG/1.1/DTD/svg11.dtd">
<svg version="1.1" id="Layer_1" xmlns="http://www.w3.org/2000/svg" xmlns:xlink="http://www.w3.org/1999/xlink" x="0px" y="0px"
	 width="9.253px" height="6.475px" viewBox="0 0 9.253 6.475" enable-background="new 0 0 9.253 6.475" xml:space="preserve">
<g>
	<path d="M1.475,6.468l0.25-0.199c0.979-0.777,1.355-1.178,1.733-1.854C3.86,3.739,4.037,3.087,4.037,2.41
		C4.039,0.98,3.212,0.001,1.958,0C0.831-0.001,0.001,0.85,0,2.003c-0.001,0.978,0.575,1.631,1.628,1.833
		C1.301,4.388,1.051,4.739,0.397,5.314L1.475,6.468z"/>
	<path d="M6.715,6.475l0.225-0.2c1.03-0.826,1.355-1.178,1.758-1.854c0.377-0.676,0.554-1.329,0.555-2.005
		C9.255,0.987,8.428,0.008,7.2,0.006C6.071,0.004,5.243,0.856,5.242,2.01C5.24,2.988,5.791,3.616,6.844,3.842
		C6.542,4.394,6.266,4.745,5.639,5.321L6.715,6.475z"/>
</g>
</svg>
