<?xml version="1.0" encoding="utf-8"?>
<!-- Generator: Adobe Illustrator 16.0.0, SVG Export Plug-In . SVG Version: 6.00 Build 0)  -->
<!DOCTYPE svg PUBLIC "-//W3C//DTD SVG 1.1//EN" "http://www.w3.org/Graphics/SVG/1.1/DTD/svg11.dtd">
<svg version="1.1" id="Layer_1" xmlns="http://www.w3.org/2000/svg" xmlns:xlink="http://www.w3.org/1999/xlink" x="0px" y="0px"
	 width="17.837px" height="14.955px" viewBox="0 0 17.837 14.955" enable-background="new 0 0 17.837 14.955" xml:space="preserve">
<path fill="#0F0F0E" d="M17.764,8.766c-1.072-1.075-2.144-2.151-3.216-3.227c-0.055-0.055-0.093-0.086-0.119-0.104
	c0.004-0.014,0.006-0.032,0.006-0.06c0-0.389,0-0.776,0-1.164c0-0.779,0-1.56,0-2.339c0-0.142-0.119-0.26-0.26-0.26
	c-0.563,0-1.127,0-1.69,0c-0.142,0-0.26,0.118-0.26,0.26c0,0.445,0,0.891,0,1.336c-1.041-1.045-2.082-2.089-3.123-3.134
	C9.049,0.021,8.988,0,8.929,0c-0.003,0-0.006,0-0.01,0s-0.006,0-0.01,0C8.85,0,8.789,0.021,8.735,0.075
	c-2.887,2.897-5.774,5.794-8.661,8.69c-0.16,0.16-0.044,0.443,0.184,0.443c0.593,0,1.186,0,1.778,0c0,1.829,0,3.657,0,5.486
	c0,0.142,0.118,0.26,0.26,0.26c1.847,0,3.521,0,5.367,0c0.142,0,0.26-0.118,0.26-0.26c0-1.279,0-2.559,0-3.837
	c0.549,0,1.443,0,1.992,0c0,1.278,0,2.558,0,3.837c0,0.142,0.118,0.26,0.26,0.26c1.847,0,3.521,0,5.367,0
	c0.142,0,0.26-0.118,0.26-0.26c0-1.829,0-3.657,0-5.486c0.593,0,1.186,0,1.778,0C17.807,9.209,17.924,8.926,17.764,8.766z"/>
</svg>
