<?xml version="1.0" encoding="utf-8"?>
<!-- Generator: Adobe Illustrator 16.0.0, SVG Export Plug-In . SVG Version: 6.00 Build 0)  -->
<!DOCTYPE svg PUBLIC "-//W3C//DTD SVG 1.1//EN" "http://www.w3.org/Graphics/SVG/1.1/DTD/svg11.dtd">
<svg version="1.1" id="Layer_1" xmlns="http://www.w3.org/2000/svg" xmlns:xlink="http://www.w3.org/1999/xlink" x="0px" y="0px"
	 width="9.253px" height="6.475px" viewBox="0 0 9.253 6.475" enable-background="new 0 0 9.253 6.475" xml:space="preserve">
<g>
	<path d="M7.778,0.006l-0.25,0.199C6.549,0.982,6.172,1.383,5.795,2.059C5.393,2.736,5.216,3.388,5.216,4.065
		c-0.002,1.429,0.825,2.408,2.079,2.41c1.127,0.001,1.957-0.85,1.958-2.003C9.254,3.494,8.678,2.84,7.625,2.638
		C7.952,2.086,8.202,1.736,8.856,1.16L7.778,0.006z"/>
	<path d="M2.538,0L2.312,0.2c-1.03,0.826-1.355,1.178-1.758,1.854C0.178,2.729,0.001,3.382,0,4.059
		c-0.002,1.429,0.825,2.408,2.053,2.41C3.182,6.47,4.01,5.618,4.011,4.465c0.001-0.978-0.549-1.606-1.603-1.833
		c0.302-0.552,0.579-0.903,1.206-1.479L2.538,0z"/>
</g>
</svg>
