<?xml version="1.0" encoding="utf-8"?>
<!-- Generator: Adobe Illustrator 16.0.0, SVG Export Plug-In . SVG Version: 6.00 Build 0)  -->
<!DOCTYPE svg PUBLIC "-//W3C//DTD SVG 1.1//EN" "http://www.w3.org/Graphics/SVG/1.1/DTD/svg11.dtd">
<svg version="1.1" id="CATS" xmlns="http://www.w3.org/2000/svg" xmlns:xlink="http://www.w3.org/1999/xlink" x="0px" y="0px"
	 width="11.304px" height="15.258px" viewBox="0 0 11.304 15.258" enable-background="new 0 0 11.304 15.258" xml:space="preserve">
<path id="path3480_1_" d="M3.288,0.014c0,0-3.331,0.044-3.287,3.061c0.043,3.017,0.648,5.685,1.643,7.172
	c0.995,1.486,3.546,5.378,6.445,4.984c0,0,1.427-0.306,2.508-1.006L7.094,11.47c0,0-1.039,0.656-1.687-0.219
	c-0.649-0.874-2.682-4.94-2.682-4.94s-0.562-1.312,0.692-1.88L3.288,0.014z"/>
<path id="path3482_1_" d="M3.677,0.014c0,0,0.259-0.087,0.735,0.175C4.888,0.451,4.888,0.67,4.888,0.67l0.043,3.017
	c0,0-0.129,0.176-0.302,0.35C4.456,4.211,3.893,4.474,3.807,4.299C3.72,4.125,3.677,0.014,3.677,0.014z"/>
<path id="path3484_1_" d="M7.385,11.147l0.963-0.509c0,0,0.216-0.043,0.562,0.175c0.346,0.22,2.163,1.662,2.163,1.662
	s0.302,0.263,0.216,0.568c-0.086,0.307-0.302,0.962-0.302,0.962L7.385,11.147z"/>
</svg>
