<?xml version="1.0" encoding="utf-8"?>
<!-- Generator: Adobe Illustrator 16.0.0, SVG Export Plug-In . SVG Version: 6.00 Build 0)  -->
<!DOCTYPE svg PUBLIC "-//W3C//DTD SVG 1.1//EN" "http://www.w3.org/Graphics/SVG/1.1/DTD/svg11.dtd">
<svg version="1.1" id="Layer_1" xmlns="http://www.w3.org/2000/svg" xmlns:xlink="http://www.w3.org/1999/xlink" x="0px" y="0px"
	 width="28.838px" height="13.226px" viewBox="0 0 28.838 13.226" enable-background="new 0 0 28.838 13.226" xml:space="preserve">
<path fill="#D8D4C0" d="M22.198,10.253c0.021,0,0.044,0,0.065-0.001c0.404-0.011,0.794-0.024,1.173-0.039
	c0.017,0,0.033-0.001,0.05-0.002c3.157-0.128,5.352-0.406,5.352-0.73c0-0.04-0.044-0.079-0.108-0.117l-8.011-9.017l-1.613-0.307
	c0.002-0.003,0.003-0.006,0.005-0.009l-0.183-0.024L18.892,0L18.89,0.002L18.876,0l-3.195,3.565l-2.592-2.928l-2.622-0.384
	L0.053,11.938h0.064c-0.006,0.015-0.022,0.03-0.022,0.046c0,0.002,0.003,0.004,0.003,0.006L0,12.101h0.043
	c0,0.003-0.005,0.006-0.005,0.009c0,0.616,4.752,1.116,10.615,1.116c1.155,0,2.259-0.021,3.3-0.057
	c5.227-0.114,9.152-0.602,9.152-1.184c0-0.016-0.017-0.031-0.022-0.046h0.009l-0.019-0.021c-0.017-0.033-0.044-0.065-0.086-0.097
	l-1.375-1.553C21.811,10.263,22.005,10.258,22.198,10.253z"/>
</svg>
