<?xml version="1.0" encoding="utf-8"?>
<!-- Generator: Adobe Illustrator 16.0.0, SVG Export Plug-In . SVG Version: 6.00 Build 0)  -->
<!DOCTYPE svg PUBLIC "-//W3C//DTD SVG 1.1//EN" "http://www.w3.org/Graphics/SVG/1.1/DTD/svg11.dtd">
<svg version="1.1" id="Layer_1" xmlns="http://www.w3.org/2000/svg" xmlns:xlink="http://www.w3.org/1999/xlink" x="0px" y="0px"
	 width="13.296px" height="6.813px" viewBox="0 0 13.296 6.813" enable-background="new 0 0 13.296 6.813" xml:space="preserve">
<g>
	<path fill="#EDC914" d="M5.638,5.453c0.002,0,0.005,0,0.007,0C5.666,5.453,5.7,5.454,5.638,5.453z"/>
	<path fill="#EDC914" d="M12.175,0H1.194L0,1.924l1.787,4.89h9.871l1.639-4.885L12.175,0z M5.5,1.757
		C5.564,1.65,5.604,1.523,5.735,1.482C5.84,1.449,5.958,1.454,6.067,1.457C6.338,1.466,6.608,1.476,6.88,1.474
		C6.665,1.672,6.528,1.932,6.383,2.183C6.229,2.444,6.081,2.711,5.914,2.964C5.619,2.791,5.32,2.622,5.055,2.477
		C5.19,2.228,5.354,1.997,5.5,1.757z M4.412,3.873c-0.043-0.25,0.099-0.502,0.244-0.69L4.69,3.135L4.645,3.098
		C4.589,3.052,4.523,3.012,4.456,2.974c0.24-0.003,0.485,0.005,0.723,0.014l0.116,0.006c0.152,0.233,0.28,0.481,0.426,0.721
		C5.684,3.691,5.648,3.67,5.614,3.653L5.568,3.631l-0.03,0.041c-0.146,0.201-0.252,0.427-0.38,0.641
		C4.966,4.3,4.786,4.312,4.621,4.192C4.514,4.115,4.434,4.004,4.412,3.873z M5.638,5.453C5.515,5.449,5.383,5.48,5.283,5.387
		C5.203,5.311,5.147,5.206,5.096,5.11C4.968,4.872,4.841,4.634,4.702,4.399c0.28,0.087,0.573,0.075,0.863,0.077
		c0.303,0,0.609-0.004,0.913,0.013C6.474,4.833,6.479,5.175,6.483,5.478C6.204,5.485,5.924,5.459,5.645,5.453
		C5.635,5.453,5.627,5.453,5.638,5.453z M7.101,1.508c0.12-0.055,0.255-0.07,0.381-0.022c0.236,0.087,0.384,0.336,0.477,0.557
		l0.022,0.053l0.055-0.02c0.067-0.024,0.136-0.063,0.202-0.101C8.12,2.184,7.991,2.39,7.863,2.593L7.801,2.69
		C7.523,2.704,7.243,2.692,6.964,2.698c0.037-0.021,0.074-0.04,0.106-0.062l0.042-0.029l-0.02-0.047
		C6.991,2.334,6.848,2.13,6.728,1.912C6.834,1.752,6.916,1.591,7.101,1.508z M8.007,5.304C7.812,5.466,7.523,5.469,7.286,5.437
		L7.228,5.43L7.219,5.487c-0.012,0.071-0.015,0.15-0.015,0.226C7.083,5.507,6.968,5.291,6.857,5.078L6.803,4.976
		c0.128-0.247,0.28-0.482,0.415-0.728c-0.001,0.043-0.002,0.085,0,0.123l0.003,0.05l0.051,0.006
		c0.247,0.027,0.496,0.006,0.743,0.012C8.101,4.61,8.199,4.763,8.178,4.963C8.165,5.095,8.11,5.219,8.007,5.304z M8.74,4.094
		c-0.143,0.23-0.288,0.459-0.421,0.695C8.254,4.504,8.098,4.256,7.956,4.004C7.805,3.74,7.649,3.478,7.513,3.206
		c0.3-0.169,0.595-0.344,0.854-0.496c0.147,0.239,0.264,0.496,0.398,0.744c-0.043-0.081,0.017,0.027,0,0
		c0.061,0.109,0.151,0.208,0.121,0.341C8.861,3.902,8.797,4.002,8.74,4.094z"/>
</g>
</svg>
